<svg xmlns="http://www.w3.org/2000/svg" xml:space="preserve" width="1500" height="476" data-id="lg_7lhhzAYCoVFCwdHFk4" data-version="1" viewBox="0 0 1500 476"><g data-padding="20"><g transform="translate(10 8.53)scale(.96416)"><rect width="587.664" height="298.32" x="218.83" y="-150.049" fill="none" rx="0" ry="0" transform="matrix(.95 0 0 .95 280.48 142.61)"/><path d="M511.475 220.074V44.513h40.622q20.568 0 30.856 11.038 10.28 11.03 10.28 32.348v17.309q0 21.318-10.28 32.357-10.289 11.03-30.856 11.03h-13.034v71.478Zm27.588-96.559h13.034q6.773 0 10.165-3.761 3.382-3.763 3.382-12.788V86.153q0-9.034-3.382-12.796-3.39-3.762-10.165-3.762h-13.034Zm69.217 96.559V44.513h27.588v150.48h45.391v25.08Zm80.01 0 28.585-175.56h37.372l28.586 175.56h-27.588l-5.016-34.856v.494h-31.35l-5.016 34.362Zm33.857-58.188h24.824l-12.284-86.773h-.504Zm73.986 58.188V44.513h34.61l26.836 105.088h.494V44.513h24.586v175.56h-28.348L821.213 91.919h-.504v128.155Zm107.084 0V44.513h27.588v175.56Zm69.73 0V69.594h-28.842v-25.08h85.272v25.08h-28.842v150.48Z"/><rect width="587.664" height="298.32" x="218.83" y="-150.049" fill="none" rx="0" ry="0" transform="matrix(.95 0 0 .95 280.48 335.08)"/><path fill="#dadada" d="M511.475 412.553v-175.56h40.622q20.568 0 30.856 11.03 10.28 11.038 10.28 32.356v17.3q0 21.318-10.28 32.357-10.289 11.039-30.856 11.039h-13.034v71.478Zm27.588-96.558h13.034q6.773 0 10.165-3.762 3.382-3.762 3.382-12.796v-20.815q0-9.025-3.382-12.787-3.39-3.762-10.165-3.762h-13.034Zm69.217 96.558v-175.56h27.588v150.48h45.391v25.08Zm80.01 0 28.585-175.56h37.372l28.586 175.56h-27.588l-5.016-34.865v.503h-31.35l-5.016 34.362Zm33.857-58.188h24.824l-12.284-86.782h-.503Zm73.986 58.188v-175.56h34.61l26.836 105.08h.494v-105.08h24.586v175.56h-28.348l-33.098-128.165h-.504v128.165Zm107.084 0v-175.56h27.588v175.56Zm69.73 0v-150.48h-28.842v-25.08h85.272v25.08h-28.842v150.48Z"/></g><path fill="transparent" stroke="transparent" d="M471 0h558v476H471z"/></g></svg>